<svg xmlns="http://www.w3.org/2000/svg" width="23.143" height="24.343" viewBox="0 0 23.143 24.343">
  <path id="Icon_core-home" data-name="Icon core-home" d="M24.859,11.643,14.6,2.205a1.756,1.756,0,0,0-2.431.051L2.734,11.691l-.484.484V26.084h9.092V17.406H16.3v8.678h9.092V12.135ZM13.41,3.395c.015,0,.006,0,0,.009s-.014-.009,0-.009ZM23.74,24.431H17.954V17.406A1.653,1.653,0,0,0,16.3,15.753H11.342a1.653,1.653,0,0,0-1.653,1.653v7.025H3.9V12.86L13.41,3.425v0L23.74,12.86Z" transform="translate(-2.25 -1.742)" fill="#4e4f52" opacity="0.7"/>
</svg>
